<svg width="121.8mm" height="171.3mm" version="1.1" viewBox="0 0 121.8 171.3" xmlns="http://www.w3.org/2000/svg">
 <g transform="translate(-15.58 -6.578)">
  <g transform="rotate(-32.32 -136.1 56.6)">
   <g transform="translate(12.01 -1.168)">
    <path transform="matrix(.4535 0 0 .4535 165.9 67.65)" d="m-262 280.7c-2.17-1.699-7.281 1.66-7.822 4.378 0.0186 0.0516-3.32 9.644 1.062 14.58 0.9682 1.091 1.006 1.52 0.3008 3.376-0.9844 2.59-0.6456 5.407 1.072 8.923 1.241 2.54 1.395 4.135 0.4717 4.883-0.4839 0.3919-0.5779 0.7504-0.5959 2.29-0.028 2.403 0.253 3.626 1.053 4.576l0.6563 0.7805-0.4467 2.691c-0.3206 1.931-0.5661 2.735-0.866 2.841-1.313 0.4614-1.728 1.78-0.9241 2.928 0.3641 0.5198 0.3769 0.8479 0.1003 2.506-0.1751 1.049-0.4682 2.206-0.6518 2.57s-0.4616 1.614-0.6176 2.778c-0.156 1.164-0.7624 3.61-1.347 5.434-1.037 3.237-1.085 3.326-2.018 3.663-1.313 0.475-2.5 2.351-2.5 3.953 0 0.6451-0.3041 2.14-0.6746 3.322-0.3705 1.182-0.9175 2.923-1.216 3.868-0.2984 0.9459-1.415 3.536-2.482 5.755-1.799 3.743-1.993 4.035-2.662 4.035-0.946 0-2.534 1.656-2.964 3.091-0.3946 1.317-0.4129 2.532-0.0433 2.901 0.3472 0.3472-1.237 3.797-1.743 3.797-0.5868 0-1.709 1.581-1.709 2.407 0 1.086-3.608 8.179-5.858 11.52-0.5944 0.8815-0.8575 1.068-1.375 0.9685-0.8516-0.1628-2.12 1.436-2.106 2.655 0.0115 0.9999-0.9456 2.333-4.336 6.043-2.643 2.892-6.876 6.644-8.342 7.395-1.173 0.6008-1.267 0.6099-1.267 0.1333 0-0.4194-0.5607-0.6894-1.431-0.6894-1.036 0-2.982 1.511-3.606 2.8-0.3153 0.6513-1.006 1.508-1.535 1.904-0.529 0.3962-2.57 2.038-4.536 3.649-4.183 3.425-7.173 5.662-8.471 6.338-0.6766 0.3522-1.567 0.4905-3.307 0.5139-2.731 0.0368-4.161 0.5728-4.684 1.756-0.3294 0.7441-1.076 1.032-2.674 1.032-2.258 0-4.64 2.366-3.833 3.808 0.2104 0.3759-0.1294 0.6182-2.217 1.582-1.356 0.6258-3.221 1.414-4.143 1.751l-1.677 0.613-0.5937-0.7441c-0.5456-0.6843-0.6946-0.7308-1.837-0.5743-2.852 0.3909-5.376 2.146-5.035 3.503 0.1406 0.5603 0.0139 0.702-1.036 1.152-0.658 0.2821-2.272 0.8362-3.586 1.231-2.292 0.6879-2.427 0.6986-3.303 0.2826-1.834-0.8702-4.388-0.3979-5.598 1.035-0.5994 0.7097-2.446 1.174-7.34 1.843-3.645 0.4981-13.02 0.7179-16.04 0.376-1.891-0.2143-2.349-0.3676-3.118-1.043-0.7514-0.6597-1.128-0.7919-2.264-0.7919-1.002 0-1.514 0.1412-1.931 0.5333-0.5265 0.4946-0.9579 0.5377-5.97 0.5868-6.072 0.0595-9.285-0.3204-10.01-1.183-1.117-1.337-4.348-2.485-5.141-1.827-0.2614 0.2169-0.9005 0.1892-2.443-0.106-1.634-0.3126-2.264-0.5697-2.89-1.176-1.514-1.467-4.205-2.02-5.163-1.062-0.291 0.291-0.7972 0.5284-1.125 0.5264-1.282-8e-3 -5.038-1.588-8.374-3.523-1.924-1.116-3.611-2.031-3.748-2.031-0.1365 0-0.2514-0.2674-0.2564-0.5948-0.0253-1.79-2.793-2.969-4.26-1.815l-0.6358 0.5002-5.948-2.572c-7.2-3.113-7.146-3.085-10.45-5.329-3.508-2.381-7.742-6.02-10.11-8.692-1.643-1.851-1.919-2.302-1.921-3.14-2e-3 -0.5944-0.3069-1.508-0.7771-2.328-0.7202-1.256-1.087-1.534-2.702-2.048-0.6246-0.1985-2.946-3.059-3.631-4.476-0.7978-1.648-2.321-2.669-4.092-2.743l-1.363-0.0581-3.106-3.217c-1.708-1.769-3.541-3.922-4.072-4.783-0.5318-0.8616-1.095-1.567-1.252-1.567s-0.0215-0.1859 0.302-0.4125c0.7155-0.5011 0.7887-1.864 0.1698-3.168-0.613-1.292-3.11-3.564-3.916-3.564-0.5634 0-0.8833-0.3919-2.139-2.629-2.726-4.857-4.892-10.23-5.69-14.12-0.3077-1.499-0.2984-1.552 0.368-2.17 0.3759-0.3484 0.6837-0.8833 0.6837-1.188 0-0.6876-0.6374-1.956-1.594-3.175-0.7674-0.9773-2.095-4.977-2.634-7.938-0.4087-2.242-2.095-4.179-3.014-4.654-2.728-1.672-8.345 1.343-8.345 1.343 0.7106 2.804 0.1835 6.823 1.071 9.507 5.823 17.61 14.67 33.67 26.09 47.36 3.146 3.772 13.22 13.79 17.43 17.33 15.78 13.28 32.14 21.92 51.86 27.39 5.615 1.559 15.36 3.23 22.22 3.81 1.528 0.1293 7.303 0.2019 12.83 0.1607 10.53-0.0785 14.44-0.3839 22.46-1.75 8.825-1.503 19.91-4.659 28.74-8.178 20.44-8.156 37.96-19.72 52.2-34.44 0.0558-0.0576 0.1073-0.1177 0.163-0.1755 2.285-2.369 4.484-4.821 6.599-7.352 0.1722-0.2068 0.335-0.4234 0.5059-0.6313 1.892-2.292 3.71-4.651 5.461-7.072 0.9459-1.318 1.865-2.674 2.776-4.039 1.95-2.927 4.005-6.115 4.64-7.317l3.31-5.721c2.12-3.786 6.788-14.5 8.443-19.38 4.976-14.66 7.34-28.49 7.282-42.6-0.0284-6.982-0.3127-10.88-1.307-17.86-0.8236-5.96-2.226-13.39-3.872-17.61zm-29.9 11.89c-1.853 0.137-4.317 0.5773-7.909 1.359-14.45 3.147-38.7 8.516-44.85 9.929-3.711 0.8536-11.63 2.645-17.59 3.98-12.51 2.8-13.05 2.942-14.56 3.826-2.108 1.236-3.283 3.372-2.891 5.256 0.268 1.288 1.323 2.939 2.567 4.019 1.235 1.072 7.535 4.228 14.75 7.393 5.462 2.395 5.114 2.235 12.7 5.837 3.274 1.555 9.823 4.647 14.55 6.872 4.729 2.225 11.04 5.202 14.02 6.615 13.62 6.451 20.49 9.562 22.09 10.01v-1e-3c0.291 0.0808 1.541 0.1185 2.778 0.0832 1.89-0.0539 2.441-0.1769 3.448-0.7691 1.963-1.154 3.379-2.52 4.811-4.642 3.653-5.413 6.507-13.95 8.07-24.13 0.6396-4.165 0.712-5.361 0.719-11.91 7e-3 -5.919-0.0809-7.77-0.4729-9.922-1.35-7.414-4.006-11.85-7.998-13.35-1.146-0.4318-2.387-0.5985-4.24-0.4615zm-123.6 30.33c-1.854-0.0889-6.466 1.241-26.92 7.029-5.966 1.688-16.33 4.603-23.02 6.477-6.694 1.874-14.97 4.198-18.39 5.165-3.42 0.9672-8.581 2.405-11.47 3.194-6.177 1.688-7.144 2.081-8.747 3.559-3.094 2.852-3.742 7.715-1.906 14.31 2.771 9.96 9.529 21.4 16.73 28.31 2.575 2.472 5.025 3.94 7.64 4.576 1.149 0.2798 3.635-0.1192 5.104-0.8193 2.07-0.9864 3.649-2.568 58.64-58.75 2.463-2.516 4.749-4.975 5.081-5.464 1.796-2.643 1.183-5.946-1.324-7.135-0.49-0.2325-0.8016-0.4193-1.42-0.449zm34.24 0.3384c-2.474 0.1587-3.958 0.9318-5.121 2.667-1.557 2.324-1.452 5.488 0.2974 8.921 0.9335 1.832 5.74 10.18 7.108 12.35 0.3727 0.5904 2.906 4.929 5.628 9.641 2.722 4.712 5.628 9.699 6.458 11.08 0.8304 1.382 2.381 4.001 3.445 5.82 2.627 4.492 9.798 16.59 13.09 22.09 1.482 2.474 3.568 5.966 4.635 7.76 2.794 4.693 4.478 6.392 7.144 7.206 1.32 0.4031 4.151 0.2556 5.991-0.3122 10.28-3.172 26.67-19.11 33.29-32.38 3.164-6.341 3.798-10.79 2.065-14.49-1.499-3.204-2.458-3.837-13.84-9.142-8.742-4.073-23.88-11.23-29.35-13.87-2.547-1.231-5.107-2.404-5.689-2.606-0.582-0.2023-1.917-0.9812-2.967-1.731-3.852-2.749-8.492-4.925-13.8-6.47-1.524-0.4441-3.377-1.104-4.117-1.466-3.054-1.496-8.872-4.031-10.54-4.591-1.426-0.4798-2.174-0.5751-3.729-0.4752zm-24.79 6.693c-1.318-0.0768-2.885 0.4802-4.534 1.745-1.59 1.219-6.913 6.583-25.71 25.9-14.14 14.54-22.04 22.61-30.93 31.62-3.163 3.203-6.032 6.24-6.374 6.749-3.843 5.716-0.2319 12.4 10.73 19.87 5.486 3.736 10.7 6.469 17.64 9.247 3.776 1.511 10.49 3.449 13.68 3.951 2.197 0.3449 7.371 0.1375 8.969-0.3589 1.895-0.5888 3.663-1.843 4.61-3.274 1.491-2.251 1.408-1.841 5.704-28.64 3.464-21.61 7.506-46.07 8.978-54.34 0.5149-2.894 0.9341-6.11 0.9309-7.144-0.0102-3.304-1.51-5.192-3.706-5.32zm12.59 1.767c-2.048-0.1304-3.313 0.447-4.88 2.228-1.299 1.476-1.839 3.063-2.964 8.704-0.8444 4.235-5.489 31.94-6.831 40.75-0.4435 2.91-1.953 12.26-3.355 20.77-2.92 17.74-3.091 19.71-1.919 22.23 0.3728 0.8004 1.14 1.917 1.706 2.483 2.022 2.021 7.157 3.839 12.36 4.377 2.787 0.2878 10.83 0.1435 14.33-0.2575 7.31-0.8383 14.5-2.38 21.03-4.509 3.553-1.158 10.24-4.296 12.85-6.033 2.392-1.589 4.77-4.112 5.75-6.103 0.7515-1.527 0.8466-1.973 0.8466-3.974 0-2.097-0.0765-2.411-1.086-4.503-0.5967-1.237-3.322-5.999-6.055-10.58-7.994-13.41-12.04-20.22-14.69-24.74-1.364-2.328-3.395-5.781-4.515-7.673-1.12-1.892-3.853-6.595-6.072-10.45-2.22-3.856-4.78-8.261-5.689-9.789-0.9093-1.528-2.392-4.087-3.295-5.688-3.145-5.571-4.681-7.046-7.534-7.228zm125.3 47.03-4.587 0.9298c0.3274-0.0753 2.392-0.4936 4.587-0.9298z" fill="#80b944"/>
    <path transform="matrix(.4535 0 0 .4535 165.9 67.65)" d="m-261.5 281.7c-0.5428-2.806-4.06-0.9994-4.06-0.9994 1.706 6.057 3.003 12.34 3.974 19.31 2.269 16.28 1.188 32.36-3.276 48.68-7.673 28.06-24 52.76-47.23 71.47-8.14 6.556-18.5 12.92-28.97 17.8-14.51 6.757-30.46 11.31-45.11 12.88-5.654 0.6054-21.71 0.7396-26.85 0.2245-22.23-2.227-41.99-9.468-60.44-22.15-26.18-17.99-45.99-45.91-54.89-77.35-0.1788-0.6318-0.1513-0.5658-0.3205-1.217-0.2874-1.86-3.733-1.749-3.226 1.116 0.7106 2.804 1.18 4.593 2.068 7.277 5.823 17.61 14.67 33.67 26.09 47.36 3.146 3.772 13.22 13.79 17.43 17.33 15.78 13.28 32.14 21.92 51.86 27.39 5.615 1.559 15.36 3.23 22.23 3.81 1.528 0.1293 7.303 0.2007 12.83 0.1595 10.53-0.0785 14.44-0.3828 22.46-1.749 8.825-1.503 19.91-4.659 28.74-8.178 27.29-10.89 49.35-27.85 65.39-50.28 2.091-2.924 6.051-9.05 6.951-10.75l3.309-5.721c2.12-3.786 6.789-14.5 8.445-19.38 4.976-14.66 7.341-28.49 7.283-42.6-0.0284-6.982-0.3138-10.88-1.308-17.86-0.8658-6.081-1.658-10.51-3.365-16.59zm-6.648 97.03-4.587 0.931c0.3274-0.0753 2.392-0.4947 4.587-0.931z" fill="#3b8236"/>
   </g>
   <g transform="translate(64.44 -20.63)">
    <path transform="matrix(.4535 0 0 .4535 165.9 67.65)" d="m-392.7 178.3c-12.3 0.0945-28.61 2.737-36.99 5.018-12.71 3.46-26.61 9.358-37.63 15.97-22.4 13.43-41.59 34.59-54.11 59.68-9.053 18.13-13.59 35.14-14.63 54.8-0.6398 12.1 0.7093 24.7 4.06 37.26 0.2712 2.134 8.627-1.135 8.627-1.135 1.235-0.9962 1.069-2.095 0.4192-4.086-0.4382-1.368-1.048-2.97-1.356-3.56-1.017-1.951-2.517-11.59-2.814-18.08l-0.1664-3.626 0.8341-0.7794c0.6988-0.6528 0.8352-0.9746 0.8352-1.979 0-1.415-0.358-2.468-1.11-3.27-0.4769-0.5092-0.5603-1.023-0.6791-4.137-0.1584-4.15 0.1919-7.415 1.268-11.79 1.288-5.236 4.202-14.05 5.575-16.86 0.7185-1.47 1.436-3.375 1.595-4.233 0.159-0.858 0.5091-2.096 0.7771-2.751 0.268-0.6548 0.81-2.367 1.206-3.806 0.5932-2.157 0.8757-2.758 1.61-3.426 1.309-1.191 1.928-2.338 1.928-3.577 0-1.332 1.508-5.817 2.861-8.506 1.469-2.92 7.785-12.29 9.471-14.06 1.116-1.167 3.006-2.348 3.755-2.348 1.042 0 2.32-0.9651 3.251-2.454 1.261-2.018 1.828-2.573 2.632-2.573 1.434 0 3.074-2.164 3.206-4.233 0.0326-0.5093 0.2811-1.223 0.5526-1.587 0.9263-1.241 4.561-4.825 6.793-6.699 1.924-1.615 2.354-1.862 3.149-1.808 1.481 0.0998 3.657-1.117 4.57-2.557 0.4221-0.6655 0.768-1.518 0.768-1.894 0-0.7385 2.028-2.588 5.688-5.187 3.051-2.166 3.368-2.329 4.422-2.266 1.088 0.0642 2.187-0.4024 2.961-1.258 0.277-0.3061 1.259-0.9787 2.182-1.495 0.9232-0.5162 2.72-1.925 3.994-3.131 1.273-1.206 3.186-2.698 4.25-3.316 2.389-1.386 7.576-3.632 9.254-4.006 0.6859-0.153 1.499-0.4422 1.806-0.6427 0.5813-0.3791 9.147-2.938 11.19-3.344 0.6438-0.1277 1.368-0.4107 1.609-0.629 1.093-0.9893 7.336-2.469 10.85-2.571 0.8004-0.0232 3.598 0.0571 6.217 0.1778 3.873 0.1784 4.953 0.3153 5.781 0.7304 0.5598 0.2807 1.339 0.5186 1.731 0.5298 0.8931 0.0254 1.881-0.4862 1.881-0.9742 0-0.5817 0.8274-0.7136 4.846-0.7703 3.699-0.0521 3.777-0.0656 5.418-0.9355 1.665-0.8824 1.666-0.8825 4.746-0.7646 2.672 0.1023 3.117 0.185 3.361 0.6187 0.5234 0.9298 1.666 1.947 2.388 2.129 0.3954 0.0992 1.155 0.0369 1.688-0.139 1.71-0.5642 10.01 0.7439 16.56 2.608 1.468 0.4183 2.995 0.8335 3.392 0.9241 0.4273 0.0974 0.884 0.4764 1.117 0.9264 0.4038 0.781 1.553 1.348 2.731 1.348 1.028 0 8.368 2.574 11.44 4.011 4.43 2.074 8.466 4.47 8.466 5.025 0 0.6767 2.101 2.79 2.998 3.015 0.5637 0.1415 0.9465 0.0417 1.549-0.4034l0.7999-0.5914 1.889 1.285c1.039 0.7067 2.724 2.077 3.742 3.045 1.821 1.731 1.843 1.769 1.366 2.296-0.5429 0.5999-0.4464 1.213 0.4125 2.631 0.6541 1.08 1.86 1.733 2.814 1.523 0.6381-0.1401 1.023 0.155 3.553 2.722 2.415 2.451 2.837 3.004 2.837 3.725 0 1.146 0.5476 2.125 1.848 3.3 1.28 1.156 2.049 1.489 3.434 1.489 0.8967 0 1.276 0.2385 3.259 2.05 4.078 3.727 8.127 8.441 8.127 9.463 0 1.178 1.495 2.426 3.75 3.132 0.7733 0.2421 4.154 4.462 5.226 6.521 0.8476 1.63 2.402 6.117 2.402 6.934 0 0.1155-0.1765 0.2097-0.392 0.2097-0.5504 0-0.7869 1.189-0.4148 2.088 0.3284 0.7927 1.228 1.347 2.208 1.361 0.7351 0.0103 1.887 1.515 3.788 4.948 2.714 4.9 2.547 7.141 3.147 9.916 0.0943 0.4364 1.638 9.376 2.612 10.93 0.764 2.799 11.1 1.424 10.11-1.553-1.96-7.903-4.021-14.3-6.928-20.7-7.943-17.48-16.9-30.48-30.62-44.41-10.06-10.22-17.43-16.11-30.5-24.37-3.843-2.428-13.44-6.016-20.45-8.953-2.535-1.062-4.2-1.556-6.654-2.154-10.1-2.526-19.43-3.803-36.12-3.947zm-0.9036 18.13c-13.7-0.1459-25.77 2.679-30.43 7.346-3.038 3.041-3.118 5.708-0.4102 13.67 0.3466 1.019 2.914 8.4 5.705 16.4 6.341 18.18 7.326 21.06 13.63 39.87 2.816 8.394 5.321 15.66 5.57 16.14 0.751 1.458 1.67 2.517 2.566 2.959 0.4675 0.2305 1.398 0.422 2.068 0.425 1.645 8e-3 2.751-0.7888 3.846-2.772 1.084-1.963 9.273-26.44 14.61-43.66 1.307-4.22 4.19-13.33 6.406-20.24 5.035-15.7 5.361-16.89 5.156-18.79-0.6988-6.444-8.073-10.04-22.77-11.11-2.006-0.1454-3.997-0.2264-5.954-0.2473zm39.42 9.385c-3.056-0.0173-4.753 0.5026-6.415 1.966-2.036 1.792-2.645 3.307-7.083 17.6-1.039 3.347-2.766 8.824-3.835 12.17-1.07 3.347-2.737 8.586-3.706 11.64-3.233 10.2-6.163 19.22-9.909 30.5-2.996 9.022-3.712 11.47-3.712 12.66 0 1.692 0.5585 3.081 1.403 3.489 0.9904 0.4785 2.404 0.3465 3.817-0.3578 1.497-0.7461 5.466-4.27 12.51-11.1 2.55-2.474 5.707-5.506 7.015-6.738 1.307-1.232 3.985-3.793 5.949-5.69 1.965-1.898 5.357-5.125 7.54-7.172 13.23-12.41 24-22.62 27.02-25.63 2.869-2.86 3.543-3.682 3.903-4.761 0.9629-2.889 0.3137-6.3-1.816-9.548-2.667-4.066-9.553-9.62-17.17-13.85-6.34-3.521-11.24-5.157-15.5-5.181zm-83.09 1.44c-5.945 0-16.4 4.697-24.98 11.22-5.542 4.215-8.328 7.371-9.685 10.97-0.744 1.971-0.6242 4.901 0.2723 6.644 0.9675 1.882 1.62 2.58 8.601 9.211 3.634 3.452 10.66 10.15 15.61 14.87 8.293 7.917 17.36 16.5 25.05 23.7 1.694 1.588 5.232 4.944 7.862 7.459 3.444 3.293 5.172 4.754 6.179 5.223 2.006 0.934 4.1 0.9101 5.252-0.0593 1.162-0.9776 1.571-2.105 1.571-4.323 0-1.747-0.3939-3.05-5.536-18.33-6.381-18.96-7.038-20.89-11.4-33.38-1.779-5.093-4.458-12.77-5.953-17.07-3.501-10.06-3.638-10.4-4.75-12.08-1.827-2.751-4.436-4.06-8.092-4.06zm122.9 29.29c-2.254-0.0401-4.015 0.6917-6.218 2.584-1.514 1.301-13.04 12.18-18.79 17.73-4.671 4.514-12.8 12.22-20.37 19.32-20.22 18.96-22.91 21.93-23.23 25.69-0.2523 2.933 1.558 5.599 4.38 6.448 1.487 0.4476 3.924 0.2469 7.976-0.6552 2.268-0.5049 6.863-1.511 10.21-2.236s11.09-2.446 17.2-3.826c6.112-1.38 12.72-2.872 14.68-3.316 8.168-1.844 20.84-4.615 25.66-5.61 10.54-2.177 12.04-2.719 14.29-5.185 3.386-3.705 3.488-9.195 0.3453-18.67-1.993-6.009-6.804-15.12-11.28-21.35-3.283-4.572-8.676-9.332-11.89-10.49-0.6205-0.2242-1.961-0.4228-2.98-0.441zm-163.5 1.207c-1.87 0.1406-3.861 0.8981-5.946 2.27-2.285 1.504-6.323 5.561-8.597 8.637-4.01 5.425-8.031 12.89-9.698 18-0.7549 2.314-0.8644 3.004-0.8751 5.553-8e-3 1.831 0.1243 3.294 0.3544 3.946 0.5345 1.514 2.195 3.183 3.809 3.825 1.613 0.642 8.579 2.834 15.54 4.891 7.941 2.347 22.04 6.697 30.56 9.428 2.183 0.6997 7.124 2.247 10.98 3.438 3.856 1.191 9.214 2.86 11.91 3.709 7.185 2.266 10 3.112 11.78 3.541 2.841 0.6867 4.736 0.4418 6.217-0.8045 2.181-1.835 2.138-4.405-0.1242-7.486-0.8908-1.214-7.26-7.331-19.85-19.07-5.753-5.362-11.12-10.48-24.61-23.43-10.95-10.52-15.8-14.91-17.31-15.65-0.7403-0.3656-1.508-0.6085-2.302-0.7293-0.5955-0.0905-1.206-0.1118-1.829-0.0649zm-23.14 44.51c-2.666-3e-3 -2.846 0.0341-4.454 0.9059-2.999 1.626-5.213 4.891-7.033 10.37-1.104 3.324-1.535 5.38-2.315 11.08-0.8004 5.842-0.8754 18.26-0.139 22.96 1.619 10.33 4.818 15.66 10.03 16.72 28.58-6.875 61.63-13.52 88.81-24.19 4.573-2.327 5.702-7.695 2.256-10.72-1.589-1.395-3.167-1.999-13.74-5.253-5.67-1.745-16.44-5.104-23.93-7.466-12.31-3.879-24.38-7.61-40.88-12.63-5.59-1.702-5.932-1.773-8.6-1.776z" fill="#80b944"/>
    <path transform="matrix(.4535 0 0 .4535 165.9 67.65)" d="m-392.7 178.3c-12.3 0.0945-28.61 2.737-36.99 5.018-12.71 3.46-26.61 9.358-37.63 15.97-22.4 13.43-41.59 34.59-54.11 59.68-9.053 18.13-13.59 35.14-14.63 54.8-0.6398 12.1 0.628 24.65 3.979 37.2 0.3259 1.913 3.737 0.4503 3.737 0.4503-3.227-11.6-4.967-26.78-4.271-38.33 1.304-21.65 7.589-41.74 19.29-61.66 14.12-24.05 33.8-42.68 57.35-54.3 9.087-4.483 19.63-8.41 29.21-10.88 5.916-1.523 7.496-1.841 13.91-2.797 8.991-1.339 13.54-1.694 21.81-1.697 20.54-7e-3 37.17 3.623 53.82 11.75 4.784 2.335 12.43 6.947 16.43 9.905 9.567 7.083 19.39 16.35 28.18 26.59 6.743 7.855 13.96 18.97 18.72 28.81 4.294 8.893 7.347 17.65 9.542 26.66 0 0 3.155-0.624 3.12-2.399-1.96-7.903-4.188-14.53-7.095-20.93-7.943-17.48-16.9-30.48-30.62-44.41-10.06-10.22-17.43-16.11-30.5-24.37-3.843-2.428-13.43-6.043-20.42-9.03-2.64-1.129-4.233-1.478-6.686-2.076-10.1-2.526-19.43-3.803-36.12-3.947z" fill="#3b8236"/>
   </g>
  </g>
 </g>
</svg>
